{"title":"Arthur.3.The.War.Of.The.Two.Worlds.[2010].Swedish.DvdRip.Xvid-Kn","uid":6729460,"size":1568676806,"categoryP":"video","categoryS":"movies","magnet":"?xt=urn:btih:5d847a231c79a2865c137247c71a46fa2539032d&amp;dn=Arthur.3.The.War.Of.The.Two.Worlds.%5B2010%5D.Swedish.DvdRip.Xvid-Kn&amp;tr=udp%3A%2F%2Ftracker.openbittorrent.com%3A80&amp;tr=udp%3A%2F%2Fopen.demonii.com%3A1337&amp;tr=udp%3A%2F%2Ftracker.coppersurfer.tk%3A6969&amp;tr=udp%3A%2F%2Fexodus.desync.com%3A6969","seeders":0,"leechers":0,"uploader":"Jon.Pson","files":-1,"time":1318033411,"description":"With Maltazard now 7 feet tall and Arthur still 2 inches small, our hero must find a way to grow back to his normal size ans stop the Evil M once and for all, with the help of Selenia and Betameche.\n\n\n\nGeneral\nComplete name                    : Arthur.3.The.War.Of.The.Two.Worlds.[2010].Swedish.DvdRip.Xvid-KnÃƒÂ£\\Arthur.3.The.War.Of.The.Two.Worlds.[2010].Swedish.DvdRip.Xvid-KnÃƒÂ£.avi\nFormat                           : AVI\nFormat/Info                      : Audio Video Interleave\nFile size                        : 1.46 GiB\nDuration                         : 1h 39mn\nOverall bit rate                 : 2 112 Kbps\nWriting application              : VirtualDubMod 1.5.4.1 (build 2178/release)\nWriting library                  : VirtualDub build 32842/release\n\nVideo\nID                               : 0\nFormat                           : MPEG-4 Visual\nFormat profile                   : Advanced Simple@L5\nFormat settings, BVOP            : 1\nFormat settings, QPel            : No\nFormat settings, GMC             : No warppoints\nFormat settings, Matrix          : Custom\nCodec ID                         : XVID\nCodec ID/Hint                    : XviD\nDuration                         : 1h 39mn\nBit rate                         : 1 663 Kbps\nWidth                            : 672 pixels\nHeight                           : 288 pixels\nDisplay aspect ratio             : 2.35:1\nFrame rate                       : 25.000 fps\nColor space                      : YUV\nChroma subsampling               : 4:2:0\nBit depth                        : 8 bits\nScan type                        : Progressive\nCompression mode                 : Lossy\nBits/(Pixel*Frame)               : 0.344\nStream size                      : 1.15 GiB (79%)\nWriting library                  : XviD 1.2.1 (UTC 2008-12-04)\n\nAudio\nID                               : 1\nFormat                           : AC-3\nFormat/Info                      : Audio Coding 3\nMode extension                   : CM (complete main)\nCodec ID                         : 2000\nDuration                         : 1h 37mn\nBit rate mode                    : Constant\nBit rate                         : 448 Kbps\nChannel(s)                       : 6 channels\nChannel positions                : Front: L C R, Side: L R, LFE\nSampling rate                    : 48.0 KHz\nBit depth                        : 16 bits\nCompression mode                 : Lossy\nDelay relative to video          : 1s 506ms\nStream size                      : 311 MiB (21%)\nAlignment                        : Split accross interleaves\nInterleave, duration             : 41 ms (1.02 video frame)\nInterleave, preload duration     : 500 ms\n\n","torrent":{"xt":"urn:btih:5d847a231c79a2865c137247c71a46fa2539032d","amp;dn":"Arthur.3.The.War.Of.The.Two.Worlds.%5B2010%5D.Swedish.DvdRip.Xvid-Kn","amp;tr":["udp%3A%2F%2Ftracker.openbittorrent.com%3A80","udp%3A%2F%2Fopen.demonii.com%3A1337","udp%3A%2F%2Ftracker.coppersurfer.tk%3A6969","udp%3A%2F%2Fexodus.desync.com%3A6969"],"infoHash":"5d847a231c79a2865c137247c71a46fa2539032d","infoHashBuffer":{"type":"Buffer","data":[93,132,122,35,28,121,162,134,92,19,114,71,199,26,70,250,37,57,3,45]},"announce":[],"urlList":[]}}